<?xml version="1.0" standalone="no"?>
<!DOCTYPE svg PUBLIC "-//W3C//DTD SVG 20010904//EN"
 "http://www.w3.org/TR/2001/REC-SVG-20010904/DTD/svg10.dtd">
<svg version="1.0" xmlns="http://www.w3.org/2000/svg"
 width="180.000000pt" height="180.000000pt" viewBox="0 0 180.000000 180.000000"
 preserveAspectRatio="xMidYMid meet">

<g transform="translate(0.000000,180.000000) scale(0.100000,-0.100000)"
fill="#000000" stroke="none">
<path d="M0 900 l0 -900 900 0 900 0 0 900 0 900 -900 0 -900 0 0 -900z m1583
98 c-3 -227 -1 -431 4 -453 8 -36 12 -40 51 -48 32 -6 42 -13 42 -28 0 -18 -8
-19 -105 -19 l-105 0 0 55 c0 30 -3 55 -8 55 -4 0 -35 -25 -70 -55 -69 -60
-102 -71 -187 -62 -138 14 -224 115 -233 272 -8 152 43 234 193 310 73 37 85
40 159 40 58 0 90 -5 114 -18 l34 -18 -4 135 c-2 74 -6 138 -10 141 -4 4 -27
10 -53 12 -35 5 -45 10 -45 24 0 11 9 20 23 23 12 2 58 13 102 23 44 11 85 21
92 22 9 1 10 -99 6 -411z m-747 325 c-3 -27 -8 -74 -11 -105 -5 -49 -10 -58
-26 -58 -14 0 -19 7 -19 28 0 15 -3 44 -6 64 -6 33 -11 39 -43 48 -20 6 -105
14 -188 17 l-153 6 0 -191 0 -192 108 1 c59 0 125 3 147 7 39 7 40 8 48 60 7
42 12 52 28 52 18 0 19 -9 19 -150 0 -140 -1 -150 -19 -150 -15 0 -19 10 -24
52 -4 28 -11 56 -17 62 -5 5 -73 12 -150 14 l-140 5 0 -197 0 -196 153 1 c83
0 172 6 197 12 47 13 43 6 70 115 8 32 16 42 31 42 21 0 21 -17 0 -170 l-6
-45 -348 -3 c-333 -2 -347 -2 -347 16 0 16 10 20 53 25 32 4 57 13 65 24 17
23 13 776 -4 793 -6 6 -34 13 -62 17 -42 5 -52 9 -52 24 0 18 15 19 350 19
l351 0 -5 -47z"/>
<path d="M1217 985 c-84 -29 -122 -101 -122 -225 1 -58 6 -86 24 -123 78 -161
294 -149 340 18 6 22 11 88 11 147 l0 107 -37 31 c-37 30 -117 60 -157 60 -12
-1 -38 -7 -59 -15z"/>
</g>
</svg>
